<?xml version="1.0" encoding="utf-8"?>
<!-- Generator: Adobe Illustrator 13.0.0, SVG Export Plug-In . SVG Version: 6.00 Build 14948)  -->
<!DOCTYPE svg PUBLIC "-//W3C//DTD SVG 1.1//EN" "http://www.w3.org/Graphics/SVG/1.1/DTD/svg11.dtd">
<svg version="1.1" id="Layer_1" xmlns="http://www.w3.org/2000/svg" xmlns:xlink="http://www.w3.org/1999/xlink" x="0px" y="0px"
	 width="88px" height="161.445px" viewBox="0 0 88 161.445" enable-background="new 0 0 88 161.445" xml:space="preserve">
<path fill="#FFFFFF" d="M44,108c6.629,0,12-5.371,12-12V80c0-6.629-5.371-12-12-12s-12,5.371-12,12v16C32,102.629,37.371,108,44,108
	z M40,80c0-2.207,1.793-4,4-4s4,1.793,4,4v16c0,2.207-1.793,4-4,4s-4-1.793-4-4V80z M44,0C19.699,0,0,19.699,0,44v40
	c0,19.994,13.339,36.86,31.6,42.216v-8.417C17.84,112.735,8,99.498,8,84V44C8,24.148,24.148,8,44,8c19.852,0,36,16.148,36,36v40
	c0,15.622-10.002,28.944-23.938,33.915v8.396C74.496,121.067,88,104.117,88,84V44C88,19.699,68.301,0,44,0z M48,150.133v-36.174h-8
	v36.152l-5.923-5.923l-5.657,5.656L40,161.425v0.02h8v-0.003l0.003,0.003l11.599-11.6l-5.657-5.656L48,150.133z"/>
</svg>
