<?xml version="1.0" encoding="utf-8"?>
<!-- Generator: Adobe Illustrator 13.0.0, SVG Export Plug-In . SVG Version: 6.00 Build 14948)  -->
<!DOCTYPE svg PUBLIC "-//W3C//DTD SVG 1.1//EN" "http://www.w3.org/Graphics/SVG/1.1/DTD/svg11.dtd">
<svg version="1.1" id="Layer_1" xmlns="http://www.w3.org/2000/svg" xmlns:xlink="http://www.w3.org/1999/xlink" x="0px" y="0px"
	 width="172.593px" height="181.989px" viewBox="0 0 172.593 181.989" enable-background="new 0 0 172.593 181.989"
	 xml:space="preserve">
<path fill="#FFFFFF" d="M56.123,99.53c0,16.017,12.984,29,29,29c16.016,0,29-12.983,29-29l-0.307-73.952
	c0,0,5.289,0.85,10.626,3.825c6.099,3.4,9.624,8.866,9.624,8.866V21.471C134.066,8.411,101.002,0,101.002,0v76.458
	c-2.937-3.504-9.471-5.786-16.164-5.786C68.823,70.672,56.123,83.514,56.123,99.53z M85.365,150.531
	c28.32,0,51.361-23.04,51.361-51.36c0-14.174-5.758-27.468-15.911-37.142v5.559c7.715,8.631,12.022,19.781,12.022,31.583
	c0,26.176-21.296,47.472-47.472,47.472c-26.176,0-47.472-21.296-47.472-47.472c0-26.177,21.296-47.473,47.472-47.473
	c1.739,0,3.478,0.121,5.2,0.309v-3.936c-1.723-0.173-3.464-0.262-5.2-0.262c-28.321,0-51.361,23.041-51.361,51.362
	C34.004,127.491,57.044,150.531,85.365,150.531z M12.43,161.764l-2.391,5.108c-0.679,1.446-1.24,2.687-1.713,3.956H8.267
	c-0.561-1.358-1.063-2.48-1.742-3.956l-2.362-5.108H0l6.289,11.604v8.297h3.632v-8.386l6.614-11.515H12.43z M61.292,160.701H57.66
	v8.119h-0.059c-0.649-1.063-2.067-1.86-4.045-1.86c-3.455,0-6.466,2.864-6.437,7.677c0,4.429,2.717,7.353,6.171,7.353
	c2.067,0,3.809-1.004,4.665-2.599h0.059l0.177,2.273h3.218c-0.059-0.975-0.118-2.568-0.118-4.045V160.701z M57.66,175.435
	c0,0.384-0.03,0.737-0.118,1.063c-0.354,1.564-1.653,2.568-3.13,2.568c-2.303,0-3.602-1.919-3.602-4.576s1.299-4.724,3.632-4.724
	c1.653,0,2.805,1.151,3.129,2.539c0.059,0.295,0.089,0.679,0.089,0.974V175.435z M39.061,166.96c-2.392,0-3.957,1.358-4.606,2.48
	h-0.088l-0.177-2.155h-3.159c0.059,1.24,0.118,2.628,0.118,4.281v10.098h3.632v-8.474c0-0.414,0.059-0.856,0.177-1.151
	c0.384-1.093,1.388-2.126,2.834-2.126c1.979,0,2.746,1.564,2.746,3.632v8.119h3.632v-8.533
	C44.168,168.584,41.57,166.96,39.061,166.96z M27.31,173.043c0-3.16-1.329-6.083-5.935-6.083c-2.273,0-4.134,0.62-5.197,1.27
	l0.709,2.362c0.974-0.62,2.451-1.063,3.868-1.063c2.539,0,2.923,1.564,2.923,2.51v0.235c-5.314-0.029-8.533,1.831-8.533,5.434
	c0,2.185,1.624,4.281,4.518,4.281c1.89,0,3.396-0.798,4.251-1.92h0.089l0.266,1.595h3.277c-0.177-0.886-0.236-2.155-0.236-3.454
	V173.043z M23.767,176.615c0,0.266,0,0.531-0.089,0.797c-0.354,1.033-1.388,1.979-2.864,1.979c-1.151,0-2.067-0.649-2.067-2.066
	c0-2.186,2.451-2.717,5.02-2.688V176.615z M169.198,179.096c-2.48,0-4.399-1.684-4.399-4.636c-0.029-2.628,1.624-4.665,4.399-4.665
	c1.299,0,2.155,0.266,2.745,0.561l0.65-2.746c-0.827-0.354-2.186-0.649-3.514-0.649c-5.049,0-8.002,3.337-8.002,7.647
	c0,4.458,2.923,7.352,7.411,7.352c1.801,0,3.307-0.384,4.074-0.738l-0.502-2.687C171.353,178.83,170.437,179.096,169.198,179.096z
	 M154.434,181.664h3.632v-14.379h-3.632V181.664z M147.616,173.072c-1.83-0.68-2.51-1.093-2.51-2.008
	c0-0.886,0.709-1.535,2.008-1.535c1.27,0,2.451,0.472,3.041,0.826l0.738-2.539c-0.856-0.473-2.244-0.856-3.838-0.856
	c-3.337,0-5.434,1.949-5.434,4.488c0,1.712,1.152,3.248,3.957,4.192c1.771,0.649,2.362,1.122,2.362,2.097
	c0,0.944-0.709,1.624-2.304,1.624c-1.299,0-2.863-0.562-3.661-1.063l-0.738,2.657c1.063,0.591,2.628,1.004,4.37,1.004
	c3.809,0,5.847-1.89,5.847-4.518C151.424,175.316,150.244,173.987,147.616,173.072z M156.265,161.291
	c-1.211,0-2.037,0.856-2.037,1.979c0,1.063,0.797,1.948,2.008,1.948c1.27,0,2.066-0.886,2.066-1.948
	C158.273,162.147,157.505,161.291,156.265,161.291z M92.527,167.285H88.57l-1.594,2.657c-0.443,0.738-0.856,1.477-1.27,2.273h-0.059
	c-0.413-0.738-0.827-1.446-1.299-2.215l-1.713-2.716H78.59l4.813,7.057l-4.99,7.322h4.016l1.653-2.864
	c0.443-0.797,0.886-1.506,1.299-2.332h0.059c0.413,0.797,0.827,1.564,1.299,2.332l1.742,2.864h4.133l-4.9-7.47L92.527,167.285z
	 M71.299,166.96c-4.606,0-7.027,3.75-7.027,7.736c0,4.399,2.746,7.263,7.411,7.263c2.067,0,3.779-0.384,5.02-0.915l-0.532-2.48
	c-1.122,0.384-2.303,0.65-3.986,0.65c-2.333,0-4.34-1.122-4.429-3.721h9.625c0.059-0.325,0.118-0.856,0.118-1.535
	C77.5,170.799,75.964,166.96,71.299,166.96z M67.756,172.954c0.147-1.477,1.092-3.514,3.336-3.514c2.421,0,3.011,2.185,2.982,3.514
	H67.756z M138.199,167.285h-3.632v8.681c0,0.413-0.06,0.826-0.207,1.122c-0.354,0.944-1.299,1.948-2.775,1.948
	c-1.919,0-2.687-1.535-2.687-3.927v-7.824h-3.632v8.444c0,4.694,2.392,6.26,4.99,6.26c2.598,0,4.015-1.477,4.635-2.48h0.089
	l0.178,2.155h3.159c-0.06-1.181-0.118-2.599-0.118-4.311V167.285z M115.91,161.764l-2.746,7.972
	c-0.768,2.333-1.447,4.783-1.979,6.938h-0.089c-0.502-2.214-1.122-4.576-1.83-6.908l-2.599-8.002h-4.783l-1.328,19.9h3.396
	l0.442-8.002c0.147-2.716,0.266-5.875,0.354-8.474h0.059c0.532,2.48,1.24,5.196,2.008,7.736l2.657,8.503h2.775l2.924-8.621
	c0.886-2.51,1.712-5.197,2.361-7.618h0.089c-0.029,2.688,0.118,5.787,0.236,8.356l0.384,8.119h3.543l-1.151-19.9H115.91z"/>
</svg>
